<?xml version="1.0" standalone="no"?>
<!DOCTYPE svg PUBLIC "-//W3C//DTD SVG 20010904//EN"
 "http://www.w3.org/TR/2001/REC-SVG-20010904/DTD/svg10.dtd">
<svg version="1.0" xmlns="http://www.w3.org/2000/svg"
 width="300.000000pt" height="300.000000pt" viewBox="0 0 300.000000 300.000000"
 preserveAspectRatio="xMidYMid meet">
<metadata>
Created by potrace 1.14, written by Peter Selinger 2001-2017
</metadata>
<g transform="translate(0.000000,300.000000) scale(0.100000,-0.100000)"
fill="#000000" stroke="none">
<path d="M1928 1945 c-1 -1 -23 -6 -48 -9 -101 -14 -192 -42 -292 -91 -59 -29
-173 -99 -188 -115 -3 -3 -26 -22 -52 -43 -26 -21 -53 -43 -60 -50 -60 -56
-218 -165 -314 -215 -75 -39 -250 -98 -324 -109 -104 -15 -327 -8 -425 15 -50
11 -99 24 -110 28 -11 4 6 -14 37 -39 31 -26 59 -47 62 -47 3 0 24 -13 48 -29
82 -55 250 -125 378 -156 124 -31 370 -26 508 10 216 56 372 143 557 313 89
82 164 133 268 182 86 41 233 84 327 95 71 9 252 9 310 0 139 -20 204 -33 246
-51 19 -8 34 -12 34 -9 0 10 -108 85 -191 133 -113 65 -286 136 -389 159 -89
20 -183 31 -272 31 -58 0 -108 -1 -110 -3z"/>
</g>
</svg>
