<svg width="1440" height="895" viewBox="0 0 1440 895" fill="none" xmlns="http://www.w3.org/2000/svg">
<g clip-path="url(#clip0_321_670)">
<path fill-rule="evenodd" clip-rule="evenodd" d="M-405.103 369.42C-273.615 286.172 -143.961 244.884 -13.4999 239.099V648.734C-152.711 758.733 -229.722 878.563 -229.722 878.563C-229.722 878.563 179.224 569.941 596.275 789.284C1018.78 1011.42 1368.69 785.339 1368.69 785.339C1579.88 651.347 1651.52 510.528 1651.52 510.528C1594.09 548.849 1536.82 578.906 1479.5 601.267V53.6097C1482.77 49.0923 1484.43 46.6397 1484.43 46.6397C1484.43 46.6397 1068.19 345.358 656.527 116.07C239.475 -116.145 -115.76 101.476 -115.76 101.476C-330.102 230.361 -405.103 369.42 -405.103 369.42Z" fill="#F3F3F3"/>
</g>
<defs>
<clipPath id="clip0_321_670">
<rect width="1440" height="895" fill="white"/>
</clipPath>
</defs>
</svg>
